<svg xmlns="http://www.w3.org/2000/svg" viewBox="0 0 900 1100" role="img" aria-label="Professional portrait of Chandan Kumar Jaiswal">
  <defs>
    <linearGradient id="bg" x1="0" y1="0" x2="1" y2="1">
      <stop offset="0" stop-color="#0f1711"/>
      <stop offset="1" stop-color="#050505"/>
    </linearGradient>
    <linearGradient id="glow" x1="0" y1="0" x2="1" y2="1">
      <stop offset="0" stop-color="#00c853"/>
      <stop offset="1" stop-color="#64dd17"/>
    </linearGradient>
  </defs>
  <rect width="900" height="1100" rx="42" fill="url(#bg)"/>
  <circle cx="680" cy="250" r="220" fill="#00c853" opacity="0.14"/>
  <circle cx="220" cy="880" r="260" fill="#64dd17" opacity="0.08"/>
  <ellipse cx="450" cy="760" rx="240" ry="250" fill="#0c0f0d" stroke="#ffffff" stroke-opacity="0.08"/>
  <circle cx="450" cy="410" r="118" fill="#d7c4ab"/>
  <path d="M332 394c22-96 95-161 188-161 59 0 102 20 139 58 17 17 27 39 27 61 0 20-8 38-22 51-18-7-36-10-56-10H405c-26 0-49 3-73 9Z" fill="#132014"/>
  <path d="M353 435c16-45 51-76 96-90 36-11 76-11 112 0 46 14 80 46 97 91 9 25 14 55 14 92 0 87-40 168-74 222-36 56-71 79-150 79s-114-23-150-79c-34-54-74-135-74-222 0-37 6-67 14-93Z" fill="#24362a"/>
  <rect x="294" y="730" width="312" height="130" rx="66" fill="url(#glow)" opacity="0.9"/>
  <text x="450" y="801" text-anchor="middle" font-family="Montserrat, Arial, sans-serif" font-size="34" font-weight="800" fill="#041006">Chandan Kumar Jaiswal</text>
  <text x="450" y="860" text-anchor="middle" font-family="Poppins, Arial, sans-serif" font-size="24" fill="#041006">Founder & CEO</text>
  <text x="450" y="1018" text-anchor="middle" font-family="Montserrat, Arial, sans-serif" font-size="28" font-weight="700" fill="#ffffff">New Kankali Gas Store</text>
</svg>
